<?xml version="1.0" encoding="UTF-8"?><svg id="Layer_2" xmlns="http://www.w3.org/2000/svg" viewBox="0 0 354.37 52.38"><defs><style>.cls-1{fill:#282526;}</style></defs><g id="Object"><path class="cls-1" d="m19,.94H0v50.54h10.34v-17.85h8.67c10.58,0,18.24-6.75,18.24-16.39S29.58.94,19,.94Zm0,23.63h-8.67v-14.55h8.67c4.66,0,7.66,2.92,7.66,7.2s-2.82,7.34-7.66,7.34Z"/><path class="cls-1" d="m55.83,42.11V.94h-10.34v50.54h32.47v-9.36h-22.14Z"/><path class="cls-1" d="m106.85,0h-3.45l-22.62,51.47h11.1l2.85-6.58h20.67l2.82,6.58h11.1L106.85,0Zm-8.53,36.37l6.75-17.05,6.75,17.05h-13.5Z"/><path class="cls-1" d="m173.18.9l-4.25.03h4.28l-.03-.03Z"/><polygon class="cls-1" points="211.95 .94 211.95 52.38 208.51 52.38 179.27 21.13 179.27 52.38 175.83 52.38 168.94 45.04 146.56 21.13 146.56 51.47 136.22 51.47 136.22 0 139.6 0 168.94 31.08 168.94 .94 173.22 .94 179.27 7.38 201.62 31.08 201.62 .94 211.95 .94"/><path class="cls-1" d="m233.85,42.11v-12.77h17.4v-8.81h-17.4v-10.27h23.67V.94h-34v50.54h34.94v-9.36h-24.61Z"/><path class="cls-1" d="m295.73,31.64c5.53-2.75,8.87-7.97,8.87-14.41,0-9.71-7.66-16.29-18.2-16.29h-19v50.54h10.34v-17.85h7.59l13.09,17.85h11.66l-14.34-19.84Zm-9.33-7.13h-8.67v-14.48h8.67c4.66,0,7.66,2.92,7.66,7.2s-2.85,7.27-7.66,7.27Z"/><path class="cls-1" d="m342.99.94l-11.14,20.05-11.17-20.05h-11.49l17.47,30.7v19.84h10.34v-19.91L354.37.94h-11.38Z"/></g></svg>